<?xml version="1.0" encoding="UTF-8"?>
<svg width="36px" height="23px" viewBox="0 0 36 23" version="1.1" xmlns="http://www.w3.org/2000/svg" xmlns:xlink="http://www.w3.org/1999/xlink">
    <title>read-book</title>
    <g id="Symbols" stroke="none" stroke-width="1" fill="none" fill-rule="evenodd">
        <g id="Organisms/mobile-navbar" transform="translate(-82.000000, -7.000000)" fill="#B2BAC4" fill-rule="nonzero">
            <g id="Articles" transform="translate(75.000000, 0.000000)">
                <g id="read-book" transform="translate(7.000000, 7.000000)">
                    <path d="M31.4453137,0 C31.4525138,1.82824078 31.463314,3.65648156 31.466914,5.48472234 C31.4705141,6.21100978 31.466914,6.93371944 31.466914,7.66000687 C31.466914,7.81027324 31.4813142,7.96769514 31.2401111,7.90329527 C30.3004988,7.64927356 29.5264886,7.93907298 28.87128,8.66178264 C28.7812789,8.50436074 28.8208794,8.36124991 28.8208794,8.22529463 C28.8172793,6.55805352 28.8100792,4.88723465 28.8244794,3.21999355 C28.8280795,2.91946082 28.7668787,2.82286101 28.4428744,2.85506095 C25.4440351,3.15201591 22.4955965,3.64217048 19.7775609,5.04465656 C19.403156,5.24143394 19.248354,5.45967795 19.251954,5.90689927 C19.2771544,9.7386916 19.2663542,13.5669061 19.2663542,17.3986985 L19.2663542,17.8602309 C19.3455553,17.9496751 19.4103561,17.8960086 19.475157,17.8709642 C22.2651935,16.8262552 25.1740316,16.3432561 28.1260703,16.0570345 C28.3528732,16.0355679 28.4500745,16.0856567 28.4428744,16.3253673 C28.4176741,17.0409214 28.486075,17.7457422 28.7344782,18.4219409 C28.8460797,18.7260514 28.6192767,18.6902737 28.4608747,18.701007 C27.1216571,18.8011845 25.7968398,18.9836508 24.4792225,19.2340948 C22.8304009,19.5489386 21.2103797,19.96396 19.6803596,20.6616253 C18.5139444,21.1875575 17.3943297,21.180402 16.2243144,20.6616253 C13.9994852,19.6741606 11.6306542,19.1911615 9.2258227,18.887051 C8.63181492,18.8119179 8.03780713,18.7546735 7.44379935,18.7081625 C7.20619624,18.6866959 7.18819601,18.6044072 7.26019695,18.4076298 C7.49059997,17.7707866 7.5770011,17.1124768 7.54820072,16.4398559 C7.53380053,16.1464788 7.59860138,16.0463012 7.93700581,16.0785011 C10.8890445,16.3539894 13.7906825,16.8727662 16.577119,17.9246307 C16.6815204,17.795831 16.6383198,17.6634535 16.6383198,17.5418093 C16.6383198,13.6098394 16.6347197,9.67786949 16.6491199,5.7458996 C16.6491199,5.44178909 16.5483186,5.28078942 16.2891152,5.13767859 C14.4170907,4.10728066 12.3830641,3.57777061 10.2914367,3.21641578 C9.35902444,3.05899387 8.41941213,2.94450521 7.47619978,2.85148317 C7.11619506,2.81570547 7.07659454,2.94450521 7.08019459,3.24861571 C7.09099473,5.00172331 7.08739469,6.75483091 7.08739469,8.59738277 C6.31338455,7.82816209 5.45657332,7.63496248 4.4701604,7.97842846 C4.45576021,7.87109534 4.43775998,7.78880661 4.43775998,7.70294012 C4.43415993,5.22354509 4.43415993,2.74057229 4.43775998,0.261177254 C4.43775998,0.17531076 4.45216017,0.0858664946 4.45936026,0 L5.07136828,0 C5.15416936,0.0894442652 5.26217078,0.0608221003 5.35937205,0.0643998709 C7.16659572,0.139533054 8.96301925,0.307688272 10.7486426,0.615376545 C13.1858746,1.03397571 15.5547056,1.66008556 17.7147339,2.9087275 C17.9163365,3.02679393 18.0495383,2.98743846 18.2259406,2.88368311 C19.0287511,2.40783962 19.8819623,2.03575148 20.7639738,1.72448543 C23.3344075,0.812153928 26.0056425,0.415021391 28.7092779,0.171732989 C29.4184872,0.107333118 30.1348966,0.160999677 30.8297057,0 L31.4453137,0 Z M4.00935437,9.42384778 C3.76455116,11.1340221 3.47654739,12.7976855 3.09854244,14.4470377 C3.04094168,14.6939039 2.99774112,14.9407701 3.29294498,15.019481 C3.58814885,15.098192 3.6457496,14.8298592 3.69975031,14.6223485 C4.02375456,13.3593955 4.17855658,12.0642425 4.37655918,10.7762451 C4.41975974,10.4900234 4.44136003,10.200224 4.49536073,9.91758013 C4.59616205,9.36302568 4.97056696,9.03029301 5.43137299,9.06607072 C5.92457945,9.10900397 6.27378403,9.50255874 6.28818422,10.0535354 C6.29898436,10.4148902 6.29178426,10.7798228 6.29178426,11.1411777 C6.29178426,12.8656631 6.27738408,14.5937263 6.29538431,16.3217895 C6.30618445,17.3056764 6.08298153,18.2144302 5.5465745,19.0408952 C4.81576493,20.1607374 4.33335861,21.3807572 4.09215545,22.6902212 C4.0345547,22.9907539 3.92295324,23.0408427 3.62054927,22.9299318 C2.5153348,22.522066 1.39932018,22.1428223 0.28330556,21.7671564 C0.0313022589,21.6848677 -0.0802992029,21.61689 0.0637026834,21.3235128 C0.884513435,19.667005 0.913313812,17.9174752 0.654110417,16.1393232 C0.560509191,15.5096356 0.502908436,14.8763702 0.488508248,14.2359492 C0.470508012,13.3808621 0.736911502,12.6402636 1.30571895,12.0069982 C2.09412928,11.1268666 2.97254079,10.3397571 3.82215191,9.52402536 C3.86535248,9.48824765 3.92295324,9.4703588 4.00935437,9.42384778 Z M31.9637205,9.40595893 C32.3741259,9.64209179 32.6189291,9.97124668 32.917733,10.2395795 C33.3281384,10.6080899 33.6881431,11.0374223 34.1093486,11.3916216 C35.4089657,12.4721083 35.6681691,13.8674389 35.434166,15.4380802 C35.2001629,16.9908326 35.0165605,18.5471628 35.4629664,20.0963375 C35.588968,20.5292477 35.73657,20.9514247 35.9381726,21.352135 C36.0389739,21.5560679 36.0317738,21.663401 35.8013708,21.742112 C34.6169553,22.1464001 33.4361398,22.5542659 32.2553244,22.9692873 C32.0573218,23.0408427 31.9673206,22.9907539 31.9313201,22.7832432 C31.6613166,21.2626907 31.006108,19.8995601 30.1996974,18.5972516 C29.8504929,18.0283861 29.710091,17.3843874 29.706491,16.7260776 C29.6920908,14.5185931 29.7028909,12.3146864 29.7028909,10.1107797 C29.7028909,9.69933612 29.8396927,9.36660345 30.2176977,9.16982607 C30.5273017,9.00882639 30.8405058,9.03029301 31.1249095,9.23780371 C31.4237135,9.45246995 31.4813142,9.78520261 31.5281148,10.1179353 C31.7225174,11.5383102 31.9133199,12.9586851 32.2229239,14.3575935 C32.2481243,14.457771 32.2733246,14.5543708 32.302125,14.6509706 C32.3597257,14.847748 32.4173265,15.0874587 32.68733,15.0230588 C32.9573336,14.9622367 32.9645336,14.7368371 32.9105329,14.4971265 C32.7485308,13.7636835 32.5865287,13.0302406 32.4497269,12.289642 C32.2769246,11.3522661 32.1329228,10.4077347 31.9637205,9.40595893 Z M14.9102972,7.79238438 C14.9102972,8.72976028 14.9102972,8.72976028 14.0174855,8.45427195 C12.6422674,8.03209502 11.2490492,7.6814735 9.83783071,7.4131407 C9.56782718,7.36305191 9.50662637,7.25929656 9.51742652,7.01958593 C9.52822666,6.6582311 9.53542675,6.29687627 9.51382647,5.93552144 C9.49582623,5.61709985 9.59662755,5.53481113 9.9134317,5.599211 C11.2922498,5.88543265 12.6638677,6.18596538 14.0138854,6.59383123 C14.9102972,6.8657418 14.9102972,6.8657418 14.9102972,7.79238438 Z M14.9102972,10.9050448 C14.9102972,11.8638873 14.9102972,11.8638873 13.9994852,11.5848212 C12.6242672,11.1626443 11.231049,10.8191783 9.81983048,10.54369 C9.61462779,10.5043345 9.51022642,10.4506679 9.51742652,10.2252684 C9.52822666,9.80666924 9.5318267,9.3844923 9.51382647,8.96589314 C9.50302633,8.69398258 9.64702821,8.69040481 9.84143076,8.72976028 C11.465052,9.0446041 13.0742731,9.42742555 14.6546938,9.9211579 C14.8418963,9.98198 14.9174973,10.0642687 14.9102972,10.2538906 C14.9030971,10.4685568 14.9102972,10.6868008 14.9102972,10.9050448 Z M20.9943769,7.76018445 C20.9943769,6.86931957 20.9943769,6.86931957 21.8835885,6.597409 C23.2444063,6.17880984 24.6340245,5.87827711 26.0272428,5.59205546 C26.2792461,5.54196667 26.4088478,5.58132215 26.3908475,5.88185488 C26.3656472,6.34338729 26.5276493,6.89078619 26.3260467,7.24498548 C26.117244,7.61349585 25.4944358,7.51331828 25.05163,7.61349585 C23.8240139,7.90329527 22.5999979,8.21098355 21.4047822,8.61884939 C21.0735779,8.73333805 20.9511763,8.6796715 20.9907768,8.3254722 C21.0123771,8.13942813 20.9943769,7.94622852 20.9943769,7.76018445 Z M20.9943769,10.9086226 C20.9943769,9.99986885 20.9979769,10.0034466 21.8727884,9.73511382 C23.2336062,9.32009243 24.6232244,9.01598193 26.0164426,8.72976028 C26.3008464,8.66893818 26.4124478,8.74764914 26.3908475,9.04818187 C26.3692473,9.33440352 26.351247,9.63135848 26.3944476,9.91400235 C26.4664485,10.371957 26.275646,10.5365344 25.8364403,10.6116676 C24.3316206,10.8656893 22.8592013,11.2628219 21.4191824,11.7529764 C21.0339774,11.885354 20.9619764,11.7708653 20.9943769,11.4273993 C21.008777,11.2556663 20.9943769,11.0803556 20.9943769,10.9086226 Z M14.9102972,14.114305 C14.9102972,15.0588365 14.9102972,15.0588365 14.0138854,14.7761926 C12.6674678,14.3504379 11.3030499,14.0033942 9.9134317,13.7493724 C9.62902798,13.6992837 9.48502609,13.6026839 9.51022642,13.2771067 C9.54622689,12.8907075 9.52102656,12.493575 9.51742652,12.103598 C9.51742652,11.9175539 9.56422713,11.8638873 9.77662991,11.9032428 C11.4254515,12.19662 13.0418727,12.6080636 14.6438937,13.0946404 C14.8454963,13.1554625 14.9246973,13.2592179 14.9102972,13.4631508 C14.899497,13.677817 14.9102972,13.896061 14.9102972,14.114305 Z" id="Shape"></path>
                </g>
            </g>
        </g>
    </g>
</svg>
