<?xml version="1.0" encoding="UTF-8"?>
<svg width="51px" height="51px" viewBox="0 0 51 51" version="1.1" xmlns="http://www.w3.org/2000/svg" xmlns:xlink="http://www.w3.org/1999/xlink">
    <title>Shape</title>
    <g id="Page-1" stroke="none" stroke-width="1" fill="none" fill-rule="evenodd">
        <g id="close" fill="#FFFFFF" fill-rule="nonzero">
            <path d="M0.5,0.5 L0.5,50.5 L50.5,50.5 L50.5,0.5 L0.5,0.5 Z M3.32857143,47.6714286 L3.32857143,3.32857143 L47.6714286,3.32857143 L47.6714286,47.6714286 L3.32857143,47.6714286 Z M40.1171429,13.8428571 L37.2428571,10.8885714 C37.0314286,10.6771429 36.78,10.58 36.4657143,10.58 C36.2542857,10.58 36.0028571,10.6828571 35.6885714,10.8885714 L25.5,20.9971429 L15.3228571,10.8885714 C15.1114286,10.6771429 14.86,10.58 14.5457143,10.58 C14.3342857,10.58 14.0828571,10.6828571 13.7685714,10.8885714 L10.8942857,13.8428571 C10.38,14.3571429 10.38,14.8828571 10.8942857,15.3971429 L21.1457143,25.5 L10.8885714,35.6828571 C10.6771429,35.8942857 10.58,36.1457143 10.58,36.46 C10.58,36.7685714 10.6828571,37.0371429 10.8885714,37.2371429 L13.8428571,40.1114286 C14.0542857,40.3228571 14.3057143,40.42 14.62,40.42 C14.8771429,40.42 15.1114286,40.3171429 15.3171429,40.1114286 L25.5,29.9285714 L35.6771429,40.1114286 C35.8885714,40.3228571 36.14,40.42 36.4542857,40.42 C36.7171429,40.42 36.9457143,40.3171429 37.1514286,40.1114286 L40.1057143,37.2371429 C40.3171429,37.0257143 40.4142857,36.7742857 40.4142857,36.46 C40.4142857,36.1514286 40.3114286,35.8828571 40.1057143,35.6828571 L29.8542857,25.4257143 L40.1171429,15.3228571 C40.6314286,14.8542857 40.6314286,14.3628571 40.1171429,13.8428571 Z" id="Shape"></path>
        </g>
    </g>
</svg>