<?xml version="1.0" encoding="UTF-8"?>
<svg width="21px" height="23px" viewBox="0 0 21 23" version="1.1" xmlns="http://www.w3.org/2000/svg" xmlns:xlink="http://www.w3.org/1999/xlink">
    <title>ui-contact-list</title>
    <g id="Symbols" stroke="none" stroke-width="1" fill="none" fill-rule="evenodd">
        <g id="Organisms/mobile-navbar" transform="translate(-211.000000, -6.000000)" fill="#B2BAC4" fill-rule="nonzero">
            <g id="Contact" transform="translate(195.000000, 0.000000)">
                <g id="ui-contact-list" transform="translate(16.000000, 6.000000)">
                    <path d="M16.9599507,22.938478 C17.5471408,22.2945099 18.1161937,21.6804402 18.6761781,21.0548712 C19.7712083,19.8313316 19.6442483,18.4491 18.3361066,17.4716483 C17.281885,16.6850872 16.2276634,15.8962262 15.1417018,15.1602625 C13.9219787,14.3346034 12.7997427,14.6220891 12.0538526,15.8962262 C11.7727268,16.3769024 11.5256082,16.8782776 11.2648867,17.3681534 C8.87985201,16.1584132 6.72153161,13.8838256 5.46553423,11.5126429 C5.9824429,11.2228572 6.51295442,10.9560704 7.01172595,10.6386861 C8.17703759,9.89812267 8.45816336,8.81257633 7.70547179,7.63733443 C6.88476592,6.35629775 5.98017575,5.12815846 5.0869213,3.89311952 C4.74458266,3.41934294 4.20953685,3.22845237 3.37749526,3.1732551 C3.37749526,2.58678409 3.30948097,1.98881365 3.39336527,1.41384208 C3.515791,0.5697838 4.21180399,0.00861154058 5.05291415,0.00861154058 C9.78670932,-0.00058800466 14.5182374,-0.00288789097 19.2520325,0.00401176796 C20.2926513,0.00631165427 20.9954657,0.811271862 20.9954657,1.95431536 C21,4.41059394 20.9977329,6.86457263 20.9977329,9.31855132 L20.9977329,20.2499109 C20.9977329,20.5626955 21.0068014,20.87548 20.9886643,21.1882646 C20.92065,22.3336079 20.2359727,22.9890755 19.1092025,22.9913754 C18.4313267,22.9936753 17.7534508,22.9890755 17.075575,22.9867757 C17.0483693,22.9890755 17.0234307,22.9660767 16.9599507,22.938478 Z M12.8178799,12.7959794 C14.2144402,12.7959794 15.6132676,12.7982793 17.0098278,12.7959794 C17.3181593,12.7959794 17.6604979,12.7476818 17.6332922,12.3544012 C17.6083536,11.9979189 17.281885,11.9220226 16.9667521,11.9358219 C16.7377706,11.9450215 16.506522,11.9818197 16.2775405,11.9795198 C15.146236,11.9703202 14.0171987,11.9450215 12.8858942,11.9381218 C11.4802654,11.9312222 10.0723694,11.9381218 8.66674054,11.9427216 C8.38561478,11.9450215 8.07501615,11.9611207 8.056879,12.3452017 C8.03647471,12.7315826 8.32213476,12.7936795 8.62139768,12.7936795 C10.0202251,12.7982793 11.4190525,12.7959794 12.8178799,12.7959794 Z M13.7406072,4.88207063 L17.0619721,4.88437052 C17.3544336,4.88437052 17.6174222,4.80617438 17.6174222,4.47039098 C17.6174222,4.0978094 17.3158922,4.04491201 17.0211635,4.04491201 L10.4713866,4.0472119 C10.1675894,4.0472119 9.89326506,4.10010928 9.90686792,4.48879007 C9.91820363,4.84757233 10.1789251,4.88437052 10.4645852,4.88207063 C11.5550811,4.87747086 12.6478441,4.88207063 13.7406072,4.88207063 Z M13.6997986,8.63548509 C14.8061646,8.63778497 15.9147976,8.63548509 17.0211635,8.64008486 C17.3249607,8.64238474 17.6174222,8.58488759 17.6151682,8.21920566 C17.6128879,7.85122385 17.3068236,7.80062636 17.0143621,7.79832647 L10.4645852,7.80062636 C10.1811923,7.80062636 9.91593649,7.8443242 9.90686792,8.20310646 C9.8955322,8.58948736 10.1630551,8.64008486 10.4713866,8.63778497 C11.5460125,8.63088531 12.6229056,8.63548509 13.6997986,8.63548509 Z M14.0262673,22.9223788 C12.6229056,22.7958851 11.2422153,22.2301131 9.95447793,21.4527515 C6.43360441,19.3253566 3.61101102,16.4711977 1.49123205,12.9109737 C0.811089068,11.7702301 0.296447543,10.5512904 0.0720003584,9.22885575 C-0.143378253,7.95011897 0.101473221,6.80937536 1.11942055,5.91931935 C1.63406208,5.47084152 2.11016217,4.97866585 2.62707084,4.53708768 C3.35935812,3.90921872 4.03496682,3.97591542 4.60401978,4.75787677 C5.37031421,5.81352458 6.11620435,6.8852716 6.83715591,7.97311783 C7.41301031,8.84017497 7.26791314,9.405947 6.36785725,9.93492085 C5.90309288,10.2086073 5.41112279,10.4293964 4.92822127,10.6708845 C4.33196259,10.9721696 4.19820113,11.3102529 4.57454692,11.8622256 C5.20481275,12.78448 5.85094859,13.6998347 6.56509872,14.5553924 C7.75761609,15.981322 9.14737492,17.1910622 10.7275738,18.1639141 C11.5074711,18.6445903 11.743254,18.5732938 12.1422712,17.7361352 C12.3508484,17.3014567 12.5616927,16.8667782 12.7997427,16.4504988 C13.3189186,15.5443436 13.8448958,15.3971508 14.6950745,15.9790221 C15.7538304,16.7034863 16.7831135,17.4716483 17.8169308,18.2306108 C17.9756309,18.347905 18.1161937,18.5019974 18.2295509,18.6675892 C18.5764238,19.1781639 18.5809581,19.7117375 18.1819409,20.1786145 C17.6083536,20.8524812 17.012095,21.5079488 16.3908977,22.1381176 C15.7833033,22.7613868 14.9830017,22.9154792 14.0262673,22.9223788 Z M3.33668669,16.850679 C5.56982282,19.3345562 7.95259041,21.4412521 10.9338838,22.9568771 C10.7366424,22.9775761 10.6436895,22.9982751 10.5484695,22.9982751 C8.77783056,23.000575 7.00719166,23.000575 5.23655276,22.9982751 C4.05310396,22.9959752 3.33668669,22.2692111 3.33668669,21.07787 L3.33668669,16.850679 Z" id="Shape"></path>
                </g>
            </g>
        </g>
    </g>
</svg>