<svg xmlns="http://www.w3.org/2000/svg" width="92" height="91" viewBox="0 0 92 91">
    <g fill="none" fill-rule="evenodd">
        <g fill-rule="nonzero">
            <g>
                <g>
                    <path fill="#5D04D9" d="M19.5 54C13.149 54 8 48.627 8 42s5.149-12 11.5-12S31 35.373 31 42c-.006 6.625-5.151 11.993-11.5 12zm0-21.028c-3.5 0-6.656 2.2-7.995 5.575-1.34 3.374-.599 7.259 1.876 9.841 2.476 2.582 6.198 3.355 9.432 1.956 3.234-1.398 5.342-4.691 5.34-8.344-.004-4.985-3.876-9.024-8.653-9.028zM36.533 88c-1.917 0-3.691-1.026-4.665-2.695l-4.163-7.076c-.383-.68-.157-1.545.51-1.944.665-.4 1.525-.185 1.931.48l4.163 7.077c.648 1.113 2.002 1.581 3.189 1.104l19.037-7.576c1.28-.526 1.921-1.981 1.45-3.295-.473-1.314-1.888-2.015-3.205-1.588l-15.365 5.176c-.36.122-.755.092-1.094-.082-.338-.175-.593-.48-.708-.846l-4.328-13.803c-.388-1.25-1.248-2.297-2.393-2.912l-6.17-3.336c-.672-.383-.918-1.239-.554-1.927.365-.687 1.206-.954 1.894-.601l6.166 3.335c1.798.967 3.149 2.61 3.76 4.573l3.896 12.416 14.003-4.716c2.78-.93 5.787.542 6.786 3.323 1 2.781-.37 5.861-3.092 6.951l-19.044 7.576c-.638.255-1.318.386-2.004.386z" transform="translate(-213 -148) translate(15 63) translate(198 85)"/>
                    <path fill="#5D04D9" d="M28.5 91c-.828 0-1.5-.629-1.5-1.405v-15.19c0-.776.672-1.405 1.5-1.405s1.5.629 1.5 1.405v15.19c0 .776-.672 1.405-1.5 1.405zM1.394 90c-.056 0-.114 0-.17-.01-.763-.097-1.306-.828-1.214-1.632l3.012-26.174c.341-2.925 1.614-5.641 3.612-7.706L8.63 52.42c.549-.567 1.431-.559 1.97.019.54.578.532 1.507-.017 2.074l-2 2.058c-1.543 1.6-2.525 3.703-2.785 5.966L2.784 88.702c-.082.742-.68 1.301-1.39 1.298z" transform="translate(-213 -148) translate(15 63) translate(198 85)"/>
                    <path fill="#474747" d="M65.862 90c-.1 0-.201-.011-.3-.031l-10.964-2.278c-.79-.164-1.298-.935-1.133-1.721.165-.787.94-1.291 1.73-1.128l10.055 2.092 10.8-14.348-35.902-8.712c-.518-.113-.933-.496-1.086-1.001-.153-.505-.019-1.053.35-1.431.37-.379.916-.529 1.428-.393l38.044 9.232c.478.115.865.461 1.03.921.166.46.088.972-.207 1.363l-12.67 16.851c-.276.37-.712.586-1.175.584zM90.542 62.992c-.108 0-.215-.011-.32-.035L33.964 50.145c-.505-.115-.91-.492-1.064-.989-.154-.497-.031-1.038.32-1.42.353-.382.88-.546 1.386-.43l54.485 12.408V11.072L10.9 3.075v26.07c0 .804-.65 1.456-1.45 1.456-.8 0-1.45-.652-1.45-1.456V1.463c-.003-.413.17-.807.474-1.085.304-.278.712-.412 1.12-.37l81.103 8.3c.74.076 1.303.701 1.303 1.448v51.788c0 .804-.65 1.456-1.45 1.456l-.008-.008z" transform="translate(-213 -148) translate(15 63) translate(198 85)"/>
                    <path fill="#474747" d="M64.935 62c-.11 0-.22-.012-.329-.037l-28.477-6.65c-.54-.128-.961-.552-1.09-1.097-.127-.545.06-1.117.486-1.476l5.25-4.414c.62-.505 1.528-.413 2.037.207.509.62.431 1.538-.174 2.062l-2.983 2.513 24.891 5.815 5.056-4.313c.615-.523 1.533-.445 2.053.176.52.62.444 1.55-.169 2.076l-5.602 4.79c-.265.227-.602.35-.949.348zM37.75 35c-.521 0-1.006-.255-1.284-.676l-6.227-9.384c-.437-.656-.258-1.525.405-1.974l9.998-6.726c.686-.433 1.608-.265 2.08.379.474.643.327 1.53-.33 2.003l-8.805 5.928 5.446 8.204c.298.449.317 1.017.05 1.483-.268.466-.779.755-1.333.755V35zM59.47 39c-.648 0-1.22-.414-1.407-1.02-.188-.607.054-1.261.594-1.611l9.78-6.328-7.29-9.76c-.31-.414-.37-.958-.157-1.427.213-.469.665-.791 1.187-.846.523-.054 1.035.167 1.344.582l8.196 10.964c.237.317.33.714.26 1.1-.07.385-.3.726-.635.942l-11.054 7.157c-.241.16-.526.246-.817.247zM43.441 36c-.565-.005-1.077-.34-1.31-.86-.235-.519-.149-1.128.22-1.561l13.108-15.081c.343-.393.866-.572 1.375-.47.508.103.923.471 1.09.967.166.496.057 1.043-.285 1.436l-13.115 15.07c-.273.315-.668.497-1.083.499z" transform="translate(-213 -148) translate(15 63) translate(198 85)"/>
                </g>
            </g>
        </g>
    </g>
</svg>
