<?xml version="1.0" encoding="UTF-8"?>
<svg width="420px" height="414px" viewBox="0 0 420 414" version="1.1" xmlns="http://www.w3.org/2000/svg" xmlns:xlink="http://www.w3.org/1999/xlink">
    <title>full stack </title>
    <g id="Templates" stroke="none" stroke-width="1" fill="none" fill-rule="evenodd">
        <g id="Homepage" transform="translate(-822.000000, -146.000000)" fill-rule="nonzero">
            <g id="Atoms/Text/Headings/H2" transform="translate(196.000000, 146.000000)">
                <g id="full-stack-" transform="translate(626.000000, 0.000000)">
                    <path d="M92,245 C62.7289083,245 39,221.271092 39,192 C39,162.728908 62.7289083,139 92,139 C121.271092,139 145,162.728908 145,192 C144.971078,221.259104 121.259104,244.971078 92,245 Z M92,152.125392 C75.867894,152.125392 61.3244235,161.843606 55.151751,176.748067 C48.9790785,191.652528 52.3929319,208.807754 63.801304,220.213625 C75.2096761,231.619496 92.3656512,235.029588 107.268758,228.853647 C122.171865,222.677707 131.88689,208.132106 131.883354,192 C131.859248,169.984441 114.015564,152.144669 92,152.125392 L92,152.125392 Z" id="Shape" fill="#5D04D9"></path>
                    <path d="M167.921088,403 C159.060985,402.995952 150.862708,398.294001 146.363026,390.635823 L127.122565,358.167793 C125.35095,355.048378 126.397965,351.079882 129.47575,349.248532 C132.553534,347.417182 136.526239,348.398833 138.404472,351.454808 L157.644933,383.922839 C160.639461,389.027278 166.896976,391.177282 172.381377,388.986096 L260.362758,354.227754 C266.283715,351.814808 269.243097,345.135963 267.061955,339.108753 C264.880813,333.081542 258.340049,329.863849 252.255528,331.824813 L181.240735,355.570351 C179.574488,356.129809 177.754094,355.994156 176.188494,355.193867 C174.622894,354.393577 173.443358,352.995752 172.914862,351.314406 L152.913529,287.984197 C151.117355,282.244829 147.143603,277.444494 141.850263,274.619654 L113.339398,259.315804 C110.231832,257.558134 109.093996,253.630811 110.778157,250.475493 C112.462318,247.320174 116.350929,246.09385 119.531329,247.715065 L148.024702,263.018915 C156.337756,267.452541 162.579521,274.988709 165.402337,284.000282 L183.409659,340.968512 L248.127574,319.329009 C260.971514,315.060053 274.86973,321.816816 279.490569,334.576456 C284.111407,347.336096 277.778282,361.469012 265.199111,366.469079 L177.182747,401.227421 C174.234251,402.397961 171.091987,403 167.921088,403 L167.921088,403 Z" id="Path" fill="#5D04D9"></path>
                    <path d="M132.5,414 C128.910149,414 126,411.064926 126,407.444329 L126,336.555671 C126,332.935074 128.910149,330 132.5,330 C136.089851,330 139,332.935074 139,336.555671 L139,407.444329 C139,411.064926 136.089851,414 132.5,414 Z" id="Path" fill="#5D04D9"></path>
                    <path d="M6.58805325,408 C6.32472558,408 6.05262032,408 5.78929264,407.955975 C2.18020938,407.516346 -0.389870702,404.228849 0.0487493354,400.613005 L14.2859989,282.826498 C15.8983305,269.66636 21.9167543,257.442737 31.3584098,248.151852 L40.7943182,238.891796 C43.3902769,236.337131 47.5618238,236.374534 50.1117291,238.975339 C52.6616343,241.576144 52.6243007,245.755478 50.028342,248.310144 L40.5748785,257.5702 C33.2781603,264.767619 28.6361206,274.233355 27.4084947,284.418207 L13.1624675,402.160745 C12.7737781,405.499857 9.94350383,408.013622 6.58805325,408 L6.58805325,408 Z" id="Path" fill="#5D04D9"></path>
                    <path d="M297.553065,408 C297.100612,407.996188 296.649546,407.949263 296.205987,407.859798 L247.002683,397.568285 C243.454332,396.828175 241.177016,393.347916 241.916155,389.794907 C242.655295,386.241899 246.130992,383.961594 249.679343,384.701703 L294.806427,394.152378 L343.274961,329.337739 L182.150542,289.984742 C179.827324,289.472788 177.962894,287.74169 177.277969,285.460624 C176.593044,283.179559 177.19495,280.70596 178.851012,278.996028 C180.507074,277.286096 182.957795,276.60777 185.255817,277.223265 L355.993469,318.923603 C358.135604,319.444175 359.872716,321.008477 360.616118,323.086383 C361.359519,325.164289 361.00955,327.477237 359.68481,329.241392 L302.827659,405.363559 C301.586839,407.030609 299.629439,408.008969 297.553065,408 L297.553065,408 Z" id="Path" fill="#474747"></path>
                    <path d="M413.388555,284.964873 C412.899093,284.964904 412.411064,284.911905 411.932985,284.806803 L156.769791,226.847614 C154.478234,226.326807 152.638179,224.621189 151.942755,222.373251 C151.247332,220.125313 151.802192,217.676571 153.398326,215.949441 C154.994459,214.222311 157.389374,213.479186 159.680931,214 L406.812184,270.13259 L406.812184,50.0896538 L52.1528809,13.9090697 L52.1528809,131.847236 C52.1528809,135.484733 49.2085393,138.433507 45.5765099,138.433507 C41.9444805,138.433507 39,135.484733 39,131.847236 L39,6.62026265 C38.9880175,4.75223801 39.7695775,2.96716633 41.1497552,1.71057044 C42.5299329,0.453974559 44.3785221,-0.155598078 46.234147,0.0339912607 L414.090035,37.5845199 C417.446193,37.9268848 420,40.7570622 420,44.1356645 L420,278.413729 C420,282.051226 417.055658,285 413.423629,285 L413.388555,284.964873 Z" id="Path" fill="#474747"></path>
                    <path d="M294.112177,284 C293.613008,284.000697 293.11536,283.945187 292.628853,283.834342 L164.097591,254.383359 C161.662312,253.821016 159.75738,251.940017 159.178998,249.526561 C158.600616,247.113105 159.44837,244.582745 161.367926,242.993092 L185.065987,223.443282 C187.867861,221.206053 191.960883,221.614073 194.258148,224.359619 C196.555414,227.105164 196.206436,231.171787 193.47441,233.492494 L180.010401,244.621517 L292.356765,270.371533 L315.17712,251.274548 C317.953231,248.955367 322.097505,249.302852 324.441953,252.051377 C326.786402,254.799901 326.446506,258.912494 323.682091,261.245386 L298.395382,282.458453 C297.200068,283.465089 295.679989,284.012101 294.112177,284 Z" id="Path" fill="#474747"></path>
                    <path d="M169.38266,158 C167.139418,158.002821 165.051483,156.847552 163.851889,154.93978 L137.028091,112.466115 C135.146671,109.496137 135.916068,105.562406 138.77557,103.531696 L181.842183,73.0878397 C184.798759,71.1280913 188.767356,71.8860086 190.805119,74.7995694 C192.842883,77.7131303 192.213001,81.7288537 189.382553,83.8689398 L151.453528,110.698578 L174.91343,147.834455 C176.194612,149.865369 176.275452,152.437259 175.124376,154.545613 C173.9733,156.653966 171.772925,157.964296 169.38266,157.96482 L169.38266,158 Z" id="Path" fill="#474747"></path>
                    <path d="M271.618087,181 C268.70006,181.001628 266.125774,179.106028 265.282626,176.334824 C264.439479,173.563619 265.526735,170.571743 267.958425,168.971652 L311.96255,140.042385 L279.157872,95.4281543 C277.765336,93.5342106 277.497138,91.047171 278.454306,88.9038793 C279.411474,86.7605875 281.448591,85.2866606 283.798294,85.0373125 C286.147998,84.7879644 288.453312,85.8010772 289.845848,87.6950209 L326.724655,137.820422 C327.791317,139.26595 328.214825,141.081687 327.89662,142.845077 C327.578415,144.608467 326.54625,146.165714 325.040329,147.154419 L275.295385,179.871521 C274.209748,180.60151 272.92961,180.994354 271.618087,181 L271.618087,181 Z" id="Path" fill="#474747"></path>
                    <path d="M195.574543,163 C192.995492,162.979611 190.662593,161.471083 189.59477,159.133287 C188.526947,156.79549 188.918195,154.053139 190.597631,152.103993 L250.408817,84.2412002 C251.969365,82.4721881 254.359124,81.6665855 256.677895,82.1278553 C258.996666,82.589125 260.892173,84.2471892 261.650395,86.477471 C262.408618,88.7077529 261.914365,91.1714196 260.353816,92.9404317 L200.516158,160.750502 C199.268939,162.171053 197.469418,162.990223 195.574543,163 L195.574543,163 Z" id="Path" fill="#474747"></path>
                </g>
            </g>
        </g>
    </g>
</svg>