<svg xmlns="http://www.w3.org/2000/svg" width="26" height="22" viewBox="0 0 26 22">
    <g fill="none" fill-rule="evenodd">
        <g fill="#B2BAC4" fill-rule="nonzero">
            <g>
                <path d="M28.65 8.728l-2.858-1.99c.03-.08.038-.177.035-.271-.003-.688 0-1.38 0-2.068 0-.688.003-1.379 0-2.067-.003-.382-.115-.503-.499-.503-.912-.003-1.827-.003-2.74 0-.377.003-.493.124-.496.509L22.09 4.16 16.434.221c-.419-.292-.451-.294-.861-.01L8.343 5.25C6.67 6.414 4.99 7.581 3.315 8.752c-.339.235-.398.409-.208.682.547.788 1.097 1.573 1.655 2.35.077.106.214.167.336.261.155-.088.282-.152.398-.232l.606-.423c-.023.08-.035.167-.035.264.006 3.238.003 6.479.006 9.717 0 .511.116.629.624.629h6.178c.525 0 .615-.094.615-.623v-8.652h5.019v8.693c0 .473.107.582.57.582h6.208c.46 0 .58-.12.58-.576 0-3.288-.004-6.576.002-9.86 0-.074-.009-.139-.02-.2l.659.46c.386.271.538.242.805-.137l1.489-2.118c.297-.417.27-.547-.152-.84z" transform="translate(-12 -6) translate(9 6)"/>
            </g>
        </g>
    </g>
</svg>
