<?xml version="1.0" encoding="UTF-8"?>
<svg width="20px" height="20px" viewBox="0 0 20 20" version="1.1" xmlns="http://www.w3.org/2000/svg" xmlns:xlink="http://www.w3.org/1999/xlink">
    <title>info-circle</title>
    <g id="Symbols" stroke="none" stroke-width="1" fill="none" fill-rule="evenodd">
        <g id="Organisms/mobile-navbar" transform="translate(-151.000000, -7.000000)" fill="#B2BAC4" fill-rule="nonzero">
            <g id="About" transform="translate(135.000000, 0.000000)">
                <g id="info-circle" transform="translate(16.000000, 7.000000)">
                    <path d="M10,0 C4.47314286,0 0,4.47314286 0,10 C0,15.5268571 4.47314286,20 10,20 C15.5268571,20 20,15.5268571 20,10 C20,4.47314286 15.5268571,0 10,0 Z M8.512,3.808 C8.704,3.77828571 8.90514286,3.74857143 9.11085714,3.73485714 C9.32571429,3.72114286 9.52457143,3.712 9.696,3.712 C9.88114286,3.712 10.0891429,3.71885714 10.3108571,3.73485714 C10.5257143,3.74857143 10.7337143,3.77828571 10.9188571,3.808 C10.9485714,4 10.9714286,4.18514286 10.9851429,4.37028571 C10.992,4.55542857 10.9988571,4.74742857 10.9988571,4.93257143 C10.9988571,5.11085714 10.992,5.296 10.9851429,5.488 C10.9714286,5.68 10.9485714,5.86514286 10.9188571,6.05942857 C10.7337143,6.08914286 10.5325714,6.112 10.32,6.12571429 C10.1051429,6.13257143 9.90628571,6.13942857 9.71885714,6.13942857 C9.54057143,6.13942857 9.34171429,6.13257143 9.12685714,6.12571429 C8.90514286,6.112 8.704,6.08914286 8.512,6.05942857 C8.44571429,5.68228571 8.416,5.30285714 8.416,4.93257143 C8.41371429,4.57828571 8.44342857,4.20114286 8.512,3.808 Z M12.2445714,16.288 L7.75542857,16.288 C7.68914286,16 7.65942857,15.7028571 7.65942857,15.3988571 C7.65942857,15.2571429 7.66628571,15.1017143 7.68228571,14.9394286 C7.696,14.7771429 7.72571429,14.6217143 7.75542857,14.48 L8.85257143,14.48 L8.85257143,9.32571429 L7.75542857,9.32571429 C7.72571429,9.184 7.696,9.02857143 7.68228571,8.86628571 C7.66857143,8.704 7.65942857,8.55542857 7.65942857,8.40685714 C7.65942857,8.10285714 7.68914286,7.808 7.75542857,7.51771429 L11.1474286,7.51771429 L11.1474286,14.48 L12.2445714,14.48 C12.2742857,14.6217143 12.304,14.7771429 12.3177143,14.9394286 C12.3314286,15.1017143 12.3405714,15.2571429 12.3405714,15.3988571 C12.3405714,15.7028571 12.3108571,16 12.2445714,16.288 Z" id="Shape"></path>
                </g>
            </g>
        </g>
    </g>
</svg>