<?xml version="1.0" encoding="UTF-8"?>
<svg width="25px" height="25px" viewBox="0 0 25 25" version="1.1" xmlns="http://www.w3.org/2000/svg" xmlns:xlink="http://www.w3.org/1999/xlink">
    <title>Path</title>
    <g id="Page-1" stroke="none" stroke-width="1" fill="none" fill-rule="evenodd">
        <g id="plus" fill="#FFFFFF" fill-rule="nonzero">
            <path d="M24.9257991,11.347032 C24.8972603,10.9446347 24.8373288,10.5136986 24.7317352,10.0542237 L14.9429224,10.0542237 L14.9429224,0.265410959 C14.4834475,0.162671233 14.0667808,0.102739726 13.6929224,0.071347032 C13.3361872,0.0256849315 12.9651826,0.0114155251 12.5941781,0.0114155251 C12.163242,0.0114155251 11.7465753,0.0256849315 11.347032,0.071347032 C10.9446347,0.0998858447 10.5136986,0.159817352 10.0542237,0.265410959 L10.0542237,10.0542237 L0.265410959,10.0542237 C0.162671233,10.5136986 0.0856164384,10.9303653 0.0570776256,11.3013699 C0.0285388128,11.6723744 0.0114155251,12.0291096 0.0114155251,12.4001142 C0.0114155251,12.8310502 0.0256849315,13.2477169 0.0570776256,13.6472603 C0.0856164384,14.0496575 0.159817352,14.4805936 0.265410959,14.9400685 L10.0542237,14.9400685 L10.0542237,24.7288813 C10.5136986,24.831621 10.9303653,24.9086758 11.3013699,24.9372146 C11.6723744,24.9657534 12.0291096,24.9828767 12.4001142,24.9828767 C12.8310502,24.9828767 13.2477169,24.9686073 13.6472603,24.9372146 C14.0496575,24.9086758 14.4805936,24.8344749 14.9400685,24.7288813 L14.9400685,14.9400685 L24.7288813,14.9400685 C24.831621,14.4805936 24.8915525,14.0639269 24.9229452,13.6900685 C24.9686073,13.3333333 24.9828767,12.9623288 24.9828767,12.5913242 C24.9857306,12.1660959 24.9714612,11.7494292 24.9257991,11.347032 Z" id="Path"></path>
        </g>
    </g>
</svg>