<svg xmlns="http://www.w3.org/2000/svg" width="40" height="40" viewBox="0 0 40 40">
    <g fill="none" fill-rule="evenodd">
        <g fill-rule="nonzero">
            <g transform="translate(-140 -19) translate(140 19)">
                <circle cx="20" cy="20" r="20" fill="#F5A623"/>
                <path fill="#FFF" d="M23.731 10.526h7.915c1.124 0 2.038.911 2.038 2.032v7.17c0 3.388-.706 6.061-2.121 8.019-1.149 1.587-2.962 3.027-5.44 4.316-.997.518-2.264.071-2.79-.92l-.688-1.297c-.525-.99-.118-2.167.855-2.732 1.163-.674 2.02-1.346 2.576-2.017.41-.496.727-1.04.952-1.629.374-.979-.516-1.845-1.64-1.845H23.73c-1.124 0-2.038-.91-2.038-2.031v-7.037c0-1.12.914-2.032 2.038-2.029zm-13.973 0h7.914c1.125 0 2.039.911 2.039 2.032v7.17c0 3.388-.707 6.061-2.122 8.019-1.148 1.587-2.962 3.027-5.44 4.316-.996.518-2.263.071-2.789-.92l-.688-1.297c-.525-.99-.119-2.167.854-2.732 1.164-.674 2.021-1.346 2.576-2.017.41-.496.727-1.04.953-1.629.374-.979-.517-1.845-1.641-1.845H9.758c-1.125 0-2.039-.91-2.039-2.031v-7.037c0-1.12.914-2.032 2.039-2.029z"/>
            </g>
        </g>
    </g>
</svg>
