<?xml version="1.0" encoding="UTF-8"?>
<svg width="25px" height="20px" viewBox="0 0 25 20" version="1.1" xmlns="http://www.w3.org/2000/svg" xmlns:xlink="http://www.w3.org/1999/xlink">
    <title>Shape</title>
    <g id="Symbols" stroke="none" stroke-width="1" fill="none" fill-rule="evenodd">
        <g id="Organisms/mobile-navbar" transform="translate(-272.000000, -7.000000)" fill="#B2BAC4" fill-rule="nonzero">
            <g id="Subscribe" transform="translate(255.000000, 0.000000)">
                <g id="newspaper" transform="translate(17.000000, 7.000000)">
                    <path d="M21.8739284,2.67266845 L21.8739284,0.402306935 C21.8739284,0.180053453 21.6910504,0 21.4653103,0 L0.408618128,0 C0.182878043,0 0,0.180053453 0,0.402306935 L0,16.9250246 C0,16.9250246 0,20 3.12321408,20 L22.6540176,20 C22.6540176,20 25,19.9521733 25,16.9250246 L25,3.47728232 C25,3.25502884 24.817122,3.07497538 24.5913819,3.07497538 L22.2796891,3.07497538 C22.0568065,3.07497538 21.8739284,2.89492193 21.8739284,2.67266845 Z M1.56589324,16.9250246 L1.56589324,1.94120129 C1.56589324,1.71894781 1.74877129,1.53889436 1.97451137,1.53889436 L19.9079895,1.53889436 C20.1337296,1.53889436 20.3166076,1.71894781 20.3166076,1.94120129 L20.3166076,16.9222113 C20.3166076,17.4286116 20.4309064,17.8224785 20.605212,18.1319454 C20.7166533,18.3260656 20.6595039,18.4582923 20.4337639,18.4582923 L3.12321408,18.4582923 C1.56589324,18.4582923 1.56589324,16.9250246 1.56589324,16.9250246 Z M3.53183221,4.61668308 L18.3392388,4.61668308 C18.5649789,4.61668308 18.7478569,4.79673653 18.7478569,5.01899001 L18.7478569,5.75045717 C18.7478569,5.97271065 18.5649789,6.1527641 18.3392388,6.1527641 L3.53183221,6.1527641 C3.30609212,6.1527641 3.12321408,5.97271065 3.12321408,5.75045717 L3.12321408,5.01899001 C3.12321408,4.79673653 3.30609212,4.61668308 3.53183221,4.61668308 Z M12.1271002,13.8444226 L16.7819179,13.8444226 C17.007658,13.8444226 17.1905361,14.024476 17.1905361,14.2467295 L17.1905361,14.9838233 C17.1905361,15.2060768 17.007658,15.3861303 16.7819179,15.3861303 L12.1271002,15.3861303 C11.9013602,15.3861303 11.7184821,15.2060768 11.7184821,14.9838233 L11.7184821,14.2467295 C11.7184821,14.024476 11.9013602,13.8444226 12.1271002,13.8444226 Z M12.1271002,10.7666338 L18.3392388,10.7666338 C18.5649789,10.7666338 18.7478569,10.9466873 18.7478569,11.1689408 L18.7478569,11.9060346 C18.7478569,12.1282881 18.5649789,12.3083415 18.3392388,12.3083415 L12.1271002,12.3083415 C11.9013602,12.3083415 11.7184821,12.1282881 11.7184821,11.9060346 L11.7184821,11.1689408 C11.7184821,10.9466873 11.9013602,10.7666338 12.1271002,10.7666338 Z M12.1271002,7.69165846 L18.3392388,7.69165846 C18.5649789,7.69165846 18.7478569,7.87171191 18.7478569,8.0939654 L18.7478569,8.83105922 C18.7478569,9.0533127 18.5649789,9.23336616 18.3392388,9.23336616 L12.1271002,9.23336616 C11.9013602,9.23336616 11.7184821,9.0533127 11.7184821,8.83105922 L11.7184821,8.0939654 C11.7184821,7.87171191 11.9013602,7.69165846 12.1271002,7.69165846 Z M3.53183221,7.69165846 L9.74397074,7.69165846 C9.96971082,7.69165846 10.1525889,7.87171191 10.1525889,8.0939654 L10.1525889,14.98101 C10.1525889,15.2032635 9.96971082,15.3833169 9.74397074,15.3833169 L3.53183221,15.3833169 C3.30609212,15.3833169 3.12321408,15.2032635 3.12321408,14.98101 L3.12321408,8.0939654 C3.12321408,7.87171191 3.30609212,7.69165846 3.53183221,7.69165846 Z" id="Shape"></path>
                </g>
            </g>
        </g>
    </g>
</svg>