<?xml version="1.0" encoding="UTF-8"?>
<svg width="22px" height="40px" viewBox="0 0 22 40" version="1.1" xmlns="http://www.w3.org/2000/svg" xmlns:xlink="http://www.w3.org/1999/xlink">
    <title>Group 3</title>
    <defs>
        <polygon id="path-1" points="0 0 22 0 22 40 0 40"></polygon>
    </defs>
    <g id="Page-1" stroke="none" stroke-width="1" fill="none" fill-rule="evenodd">
        <g id="Group-3">
            <mask id="mask-2" fill="white">
                <use xlink:href="#path-1"></use>
            </mask>
            <g id="Clip-2"></g>
            <path d="M15.620795,31.5008295 C16.0134297,35.8022963 7.21841277,35.9896664 6.20218183,32.9955848 C5.34762399,30.4769451 6.41004725,29.759234 8.93214769,29.1101354 C11.7960713,28.3742313 15.3574988,28.6256427 15.620795,31.5008295 L15.620795,31.5008295 Z M7.42165896,12.6769699 C2.97795819,3.09595448 17.6440184,3.78162203 13.1910792,12.6769699 C11.731402,13.746657 8.85823998,13.851747 7.42165896,12.6769699 L7.42165896,12.6769699 Z M22,0.120111634 C18.3877147,2.35538783 14.6599948,0.467562234 11.9762675,0.120111634 C0.118653844,-1.42035478 -3.65063912,12.2655694 4.98732392,17.7554809 C2.76547354,18.893689 2.90866971,24.6990075 5.29219321,25.5264254 C-0.315553923,26.1572395 -1.35950026,33.9875172 1.65223873,37.1827736 C5.31528936,41.0682231 16.5769759,40.8076694 19.8797265,37.1827736 C22.1893423,34.6503291 22.5081155,29.4301136 20.4848459,27.0257518 C18.6417725,24.8316156 9.40792854,24.4979241 9.54650549,21.0467308 C9.64812858,18.6331353 12.987833,19.0171091 15.0156757,18.0571746 C18.8311609,16.2515834 21.066869,10.8530943 19.570238,6.69794894 C20.4247958,6.53795984 21.1500152,6.25912171 22,6.10370373 L22,0.120111634 Z" id="Fill-1" fill="#FFFFFF" mask="url(#mask-2)"></path>
        </g>
    </g>
</svg>