<?xml version="1.0" encoding="UTF-8"?>
<svg width="31px" height="30px" viewBox="0 0 31 30" version="1.1" xmlns="http://www.w3.org/2000/svg" xmlns:xlink="http://www.w3.org/1999/xlink">
    <title>linkedin</title>
    <g id="Symbols" stroke="none" stroke-width="1" fill="none" fill-rule="evenodd">
        <g id="Molecues/Share-section" transform="translate(-178.000000, -87.000000)" fill="#F8F8F8" fill-rule="nonzero">
            <g id="Share-section" transform="translate(38.000000, 24.000000)">
                <g id="Linkedin" transform="translate(130.000000, 53.000000)">
                    <g id="linkedin" transform="translate(10.277778, 10.000000)">
                        <path d="M27.2672621,0 L2.17718236,0 C0.975160994,0 0,0.954398862 0,2.13296258 L0,27.5926561 C0,28.7712198 0.975160994,29.7222222 2.17718236,29.7222222 L27.2672621,29.7222222 C28.4692835,29.7222222 29.4444444,28.7712198 29.4444444,27.5926561 L29.4444444,2.12956614 C29.4410585,0.954398862 28.4658975,0 27.2672621,0 Z M8.92543187,24.8755063 L4.47964581,24.8755063 L4.47964581,11.4595792 L8.92543187,11.4595792 L8.92543187,24.8755063 L8.92543187,24.8755063 Z M6.70423183,9.62889955 L6.67375805,9.62889955 C5.18054278,9.62889955 4.21892569,8.59977907 4.21892569,7.30913292 C4.21892569,5.99131528 5.21440254,4.98936629 6.73131964,4.98936629 C8.25500869,4.98936629 9.18953797,5.99131528 9.21662578,7.30913292 C9.21662578,8.59977907 8.25500869,9.62889955 6.70423183,9.62889955 Z M24.9614127,24.8755063 L20.5122406,24.8755063 L20.5122406,17.6988344 C20.5122406,15.8953262 19.8722912,14.665816 18.2639528,14.665816 C17.0314576,14.665816 16.3000869,15.4945467 15.9784192,16.2961058 C15.863296,16.584803 15.8362082,16.9855826 15.8362082,17.3829658 L15.8362082,24.8822992 L11.3870362,24.8822992 C11.3870362,24.8822992 11.4445978,12.7230539 11.3870362,11.4629757 L15.8362082,11.4629757 L15.8362082,13.3615841 C16.425368,12.4479425 17.4851784,11.147107 19.8418174,11.147107 C22.7673004,11.147107 24.9614127,13.066094 24.9614127,17.1893688 L24.9614127,24.8755063 L24.9614127,24.8755063 Z" id="Shape"></path>
                    </g>
                </g>
            </g>
        </g>
    </g>
</svg>