<svg xmlns="http://www.w3.org/2000/svg" width="43" height="20" viewBox="0 0 43 20">
    <g fill="none" fill-rule="evenodd">
        <g fill="#F8F8F8" fill-rule="nonzero">
            <g>
                <g>
                    <g>
                        <path d="M40.855 0H17.412c-.743 0-1.467.6-1.62 1.342L12.46 17.547c-.154.743.326 1.342 1.064 1.342h23.443c.743 0 1.467-.6 1.615-1.342l3.332-16.205C42.072.604 41.593 0 40.854 0zM38.05 5.427l-10.403 5.015c-.45.215-.959.215-1.318 0l-8.342-5.015c-.604-.364-.685-1.213-.182-1.894.336-.455.868-.738 1.386-.738.23 0 .445.058.623.168l7.752 4.664 9.67-4.664c.225-.11.464-.168.694-.168.518 0 .93.283 1.08.738.224.681-.207 1.53-.96 1.894zM3.677 3.543h10.101c.537 0 .968-.432.968-.969 0-.536-.431-.968-.968-.968H3.677c-.537 0-.968.432-.968.968 0 .533.436.969.968.969zm7.392 6.87H.97c-.538 0-.969.431-.969.968 0 .537.431.969.968.969H11.07c.533 0 .969-.432.969-.969 0-.537-.436-.968-.969-.968zm2.32-3.495c0-.537-.43-.968-.968-.968H6.386c-.532 0-.969.431-.969.968 0 .532.432.968.969.968h6.035c.537 0 .969-.431.969-.968z" transform="translate(-237 -92) translate(38 24) translate(195 53) translate(4.167 15.556)"/>
                    </g>
                </g>
            </g>
        </g>
    </g>
</svg>
