<?xml version="1.0" encoding="UTF-8"?>
<svg width="31px" height="31px" viewBox="0 0 31 31" version="1.1" xmlns="http://www.w3.org/2000/svg" xmlns:xlink="http://www.w3.org/1999/xlink">
    <title>Shape</title>
    <g id="Page-1" stroke="none" stroke-width="1" fill="none" fill-rule="evenodd">
        <g id="telegram" fill="#FFFFFF" fill-rule="nonzero">
            <path d="M15.5,0.5 C7.21657143,0.5 0.5,7.21657143 0.5,15.5 C0.5,23.7834286 7.21657143,30.5 15.5,30.5 C23.7834286,30.5 30.5,23.7834286 30.5,15.5 C30.5,7.21657143 23.7834286,0.5 15.5,0.5 Z M20.1182857,22.6348571 C20.1182857,22.6348571 19.7445714,23.5708571 18.7125714,23.1217143 L14.8897143,20.1902857 L12.5411429,18.3525714 L12.5514286,18.2668571 C12.5514286,18.2668571 19.4085714,12.1022857 19.6897143,11.8417143 L19.8782857,11.5228571 C19.8954286,11.204 19.3708571,11.5228571 19.3708571,11.5228571 L10.2851429,17.2931429 L6.5,16.0177143 C6.5,16.0177143 5.91714286,15.812 5.86228571,15.3628571 C5.80742857,14.9137143 6.51714286,14.6702857 6.51714286,14.6702857 L21.5617143,8.76971429 C21.5617143,8.76971429 22.7994286,8.228 22.7994286,9.12628571 L20.1182857,22.6348571 Z" id="Shape"></path>
        </g>
    </g>
</svg>