<svg xmlns="http://www.w3.org/2000/svg" width="29" height="24" viewBox="0 0 29 24">
    <g fill="none" fill-rule="evenodd">
        <g fill="#F8F8F8" fill-rule="nonzero">
            <g>
                <g>
                    <g>
                        <path d="M28.056 2.694c-1.033.458-2.142.766-3.306.907 1.19-.711 2.1-1.839 2.53-3.181-1.113.66-2.347 1.137-3.655 1.396C22.577.698 21.079 0 19.425 0c-3.18 0-5.758 2.573-5.758 5.75 0 .452.051.891.148 1.31C9.03 6.82 4.79 4.534 1.952 1.05c-.493.85-.779 1.84-.779 2.894 0 1.996 1.017 3.754 2.559 4.786-.943-.029-1.83-.288-2.607-.72v.073c0 2.787 1.985 5.11 4.617 5.638-.481.131-.99.202-1.517.202-.371 0-.73-.035-1.08-.103.731 2.285 2.857 3.947 5.373 3.995-1.968 1.541-4.446 2.46-7.146 2.46-.465 0-.92-.025-1.372-.08 2.549 1.631 5.572 2.583 8.823 2.583 10.586 0 16.376-8.762 16.376-16.361 0-.25-.006-.497-.016-.743 1.125-.814 2.103-1.826 2.873-2.98z" transform="translate(-113 -90) translate(38 24) translate(65 53) translate(10 13.611)"/>
                    </g>
                </g>
            </g>
        </g>
    </g>
</svg>
