<?xml version="1.0" encoding="UTF-8"?>
<svg width="31px" height="31px" viewBox="0 0 31 31" version="1.1" xmlns="http://www.w3.org/2000/svg" xmlns:xlink="http://www.w3.org/1999/xlink">
    <title>Shape</title>
    <g id="Page-1" stroke="none" stroke-width="1" fill="none" fill-rule="evenodd">
        <g id="whatsapp" fill="#FFFFFF" fill-rule="nonzero">
            <path d="M16.0542857,0.5 C7.98342857,0.5 1.44171429,7.04514286 1.44171429,15.1125714 C1.44171429,17.8725714 2.20971429,20.4577143 3.53657143,22.6622857 L0.9,30.5 L8.99142857,27.908 C11.0862857,29.0634286 13.4897143,29.7285714 16.0542857,29.7285714 C24.1251429,29.7285714 30.6668571,23.1834286 30.6668571,15.116 C30.6668571,7.04857143 24.1251429,0.5 16.0542857,0.5 Z M23.2131429,20.1765714 C22.9182857,21.0131429 21.7422857,21.7091429 20.8028571,21.908 C20.1617143,22.0451429 19.3217143,22.1548571 16.4965714,20.9857143 C12.8828571,19.4908571 10.5582857,15.8188571 10.38,15.5822857 C10.2051429,15.3422857 8.91942857,13.6382857 8.91942857,11.876 C8.91942857,10.1137143 9.81771429,9.25314286 10.1777143,8.88628571 C10.4725714,8.58114286 10.9662857,8.44742857 11.4325714,8.44742857 C11.5868571,8.44742857 11.7205714,8.45428571 11.844,8.46114286 C12.204,8.47485714 12.3857143,8.49885714 12.6257143,9.068 C12.9205714,9.78114286 13.644,11.5434286 13.7297143,11.7251429 C13.8188571,11.9068571 13.9045714,12.1502857 13.7811429,12.3902857 C13.6645714,12.6371429 13.5651429,12.7434286 13.3834286,12.956 C13.2017143,13.1651429 13.0302857,13.3228571 12.8485714,13.5457143 C12.6805714,13.7411429 12.4954286,13.9502857 12.7045714,14.3137143 C12.9137143,14.6668571 13.6371429,15.8462857 14.7,16.7891429 C16.0714286,18.0097143 17.1857143,18.4005714 17.5834286,18.5685714 C17.8782857,18.692 18.2348571,18.6611429 18.4508571,18.4314286 C18.7251429,18.1331429 19.0645714,17.6428571 19.4108571,17.1594286 C19.6577143,16.8131429 19.9662857,16.7685714 20.292,16.892 C20.6245714,17.0051429 22.38,17.876 22.7434286,18.0542857 C23.1034286,18.236 23.3434286,18.3217143 23.4291429,18.4725714 C23.5114286,18.6234286 23.5114286,19.34 23.2131429,20.1765714 Z" id="Shape"></path>
        </g>
    </g>
</svg>